<svg xmlns="http://www.w3.org/2000/svg" viewBox="0 0 1024 1024"><defs><style>.cls-1{fill:#fff;}.cls-2{fill:#037086;opacity:0.6;}.cls-3{fill:#333;}</style></defs><rect class="cls-1" x="100" y="100" width="824" height="824" rx="160.94"/><circle class="cls-2" cx="821.61" cy="429.92" r="85.3"/><path class="cls-3" d="M393.27,488.15a66.42,66.42,0,0,1-3.14,19.23A57.26,57.26,0,0,1,380,526.52a56.54,56.54,0,0,1-18.32,14.77q-11.3,5.94-27.47,5.94h-77.4V506.47h77.4q8.74,0,13.53-5.36a19.25,19.25,0,0,0,4.78-13.29q0-8.42-5.36-13.2a18.77,18.77,0,0,0-12.95-4.78h-77.4q-8.75,0-13.53,5.36a19.23,19.23,0,0,0-4.79,13.28v59.91q0,8.58,5.37,13.36a19.16,19.16,0,0,0,13.28,4.79h77.07v40.93h-77.4a66.3,66.3,0,0,1-19.22-3.14,57.4,57.4,0,0,1-19.15-10.15,56.56,56.56,0,0,1-14.77-18.32q-5.94-11.29-5.94-27.47V488.15a66.36,66.36,0,0,1,3.14-19.22A57.26,57.26,0,0,1,211,449.79,56.5,56.5,0,0,1,229.31,435q11.31-5.94,27.48-5.94h77.4a66.27,66.27,0,0,1,19.22,3.13,57.59,57.59,0,0,1,19.15,10.15,56.64,56.64,0,0,1,14.76,18.32Q393.28,472,393.27,488.15Z"/><path class="cls-3" d="M591.13,442.28a20.46,20.46,0,0,1,1.4,12.37,21.28,21.28,0,0,1-5.69,10.9l-99.18,99H590.8v42.91H436a20.52,20.52,0,0,1-12-3.72,23,23,0,0,1-8-9.49,21.57,21.57,0,0,1-1.24-12.46,21.24,21.24,0,0,1,6-11.13L519.51,472H416.37v-42.9H571.49a21.31,21.31,0,0,1,11.8,3.46A20,20,0,0,1,591.13,442.28Z"/><path class="cls-3" d="M761.93,607.47h-77.4a69,69,0,0,1-19.72-3.14A58.3,58.3,0,0,1,645.26,594a56.46,56.46,0,0,1-15-18.65q-5.94-11.48-5.94-28.14V429.08h42.91V547.23q0,8.41,4.45,12.87t13.2,4.46h77.07ZM822,624.63a65.48,65.48,0,0,1-2.81,19.88A58.3,58.3,0,0,1,811.77,660,50.68,50.68,0,0,1,801,671.41a62.28,62.28,0,0,1-12.79,7.68,66.54,66.54,0,0,1-13.45,4.37,63.81,63.81,0,0,1-12.87,1.4h-77.4V642h77.4q8.58,0,12.87-4.46t4.29-12.87V429.08H822Z"/></svg>
